<?xml version="1.0" encoding="UTF-8" standalone="no"?><!DOCTYPE svg PUBLIC "-//W3C//DTD SVG 1.1//EN" "http://www.w3.org/Graphics/SVG/1.1/DTD/svg11.dtd"><svg width="100%" height="100%" viewBox="0 0 32 32" version="1.1" xmlns="http://www.w3.org/2000/svg" xmlns:xlink="http://www.w3.org/1999/xlink" xml:space="preserve" xmlns:serif="http://www.serif.com/" style="fill-rule:evenodd;clip-rule:evenodd;stroke-linejoin:round;stroke-miterlimit:2;"><path d="M17.68,7.21c0.423,2.251 -5.596,0.533 -7.323,-2.128c-1.826,-2.811 -1.021,-5.071 -1.021,-5.071c0,-0 0.917,2.95 3.148,4.028c1.35,0.653 4.85,1.327 5.196,3.171Z" style="fill:#82c93b;"/><path d="M13.346,29.138c0.649,0.125 1.32,0.19 2.006,0.19c2.387,0 4.59,-0.794 6.363,-2.133c0.517,-0.359 1.007,-0.775 1.472,-1.25c1.905,-1.946 2.858,-4.367 2.858,-7.263c0,-0.136 -0.002,-0.27 -0.006,-0.403l-0,-15.611c-0,-0.151 0.091,-0.285 0.312,-0.285l2.423,0c0.177,0 0.263,0.134 0.263,0.278l-0,14.572c-0.001,0.212 -0.005,0.42 -0.014,0.626c-0.266,6.285 -2.962,9.111 -2.962,9.111c-1.272,1.749 -2.982,2.815 -4.637,3.69c-1.655,0.874 -3.502,1.311 -5.541,1.311c-0.694,0 -1.369,-0.048 -2.024,-0.146l-0.006,-0.001c-0.286,-0.043 -0.569,-0.095 -0.848,-0.157l-0.305,-0.071c-0.221,-0.055 -0.439,-0.115 -0.655,-0.182c-0.081,-0.025 -0.161,-0.05 -0.241,-0.077c-1.864,-0.618 -3.546,-1.688 -5.047,-3.209c-2.529,-2.562 -3.794,-5.646 -3.794,-9.251c0,-3.682 1.253,-6.808 3.759,-9.378c2.506,-2.569 5.529,-3.854 9.069,-3.854c1.993,-0 3.825,0.414 5.495,1.242c0.491,0.244 0.968,0.523 1.432,0.836c0.052,0.036 0.072,0.097 0.072,0.16l0,2.857c0,0.196 -0.041,0.3 -0.183,0.166c-1.897,-1.791 -4.45,-2.888 -7.255,-2.888c-5.852,0 -10.603,4.774 -10.603,10.655c-0,4.477 2.753,8.312 6.649,9.888l0.322,0.125c0.199,0.073 0.401,0.14 0.605,0.201l0.478,0.131l0.543,0.12Zm-2.821,-15.222l3.83,5.963l2.133,-2.133l-5.963,-3.83Zm18.512,3.292l-0,0.029l-0,-0.029Z" style="fill:#e64741;fill-rule:nonzero;"/><path d="M17.007,6.679c0.441,-1.18 2.618,-1.459 3.757,-2.01c2.23,-1.078 3.147,-4.028 3.147,-4.028c-0,-0 0.805,2.26 -1.02,5.071c-0.751,1.156 -1.893,2.026 -2.978,2.471c0.058,0.054 0.116,0.104 0.173,0.149c1.415,1.11 3.975,0.584 3.975,0.584c-0,0 -1.58,1.438 -4.26,1.285c-1.351,-0.077 -2.512,-0.726 -3.069,-1.48c-1.449,0.862 -4.459,1.123 -6.216,-0.039c-2.795,-1.85 -2.205,-3.375 -2.205,-3.375c-0,-0 1.264,1.471 3.74,1.57c1.35,0.054 3.729,-1.104 4.956,-0.198Z" style="fill:#82c93b;"/><path d="M16.94,18.934c-0.067,0.802 -0.74,1.432 -1.558,1.432c-0.863,0 -1.563,-0.7 -1.563,-1.563c-0,-0.862 0.7,-1.563 1.563,-1.563c0.138,0 0.272,0.018 0.4,0.052l8.6,-4.837l-7.442,6.479Z" style="fill:#82c93b;"/></svg>