<?xml version="1.0" encoding="UTF-8" standalone="no"?><!DOCTYPE svg PUBLIC "-//W3C//DTD SVG 1.1//EN" "http://www.w3.org/Graphics/SVG/1.1/DTD/svg11.dtd"><svg width="100%" height="100%" viewBox="0 0 24 22" version="1.1" xmlns="http://www.w3.org/2000/svg" xmlns:xlink="http://www.w3.org/1999/xlink" xml:space="preserve" xmlns:serif="http://www.serif.com/" style="fill-rule:evenodd;clip-rule:evenodd;stroke-linejoin:round;stroke-miterlimit:2;"><path d="M12.51,4.43c0.26,1.386 -3.444,0.328 -4.507,-1.309c-1.123,-1.73 -0.628,-3.12 -0.628,-3.12c0,0 0.564,1.815 1.937,2.478c0.831,0.402 2.985,0.817 3.198,1.951Z" style="fill:#82c93b;"/><path d="M12.052,4.435c1.132,-0.645 2.393,-0.968 3.785,-0.968c1.226,-0 2.353,0.255 3.381,0.765c0.302,0.15 0.596,0.321 0.881,0.514c0.033,0.022 0.045,0.06 0.045,0.099l0,1.758c0,0.12 -0.025,0.184 -0.113,0.102c-1.167,-1.102 -2.738,-1.777 -4.464,-1.777c-3.601,-0 -6.525,2.938 -6.525,6.556c0,3.619 2.924,6.557 6.525,6.557c1.468,-0 2.824,-0.489 3.915,-1.313c0.318,-0.221 0.62,-0.477 0.906,-0.769c1.172,-1.197 1.759,-2.687 1.759,-4.47c0,-0.083 -0.002,-0.165 -0.004,-0.247l0,-9.606c0,-0.093 0.056,-0.175 0.192,-0.175l1.491,-0c0.109,-0 0.162,0.081 0.162,0.17l0,8.952c0,0.135 -0.003,0.269 -0.009,0.4c-0.164,3.868 -1.823,5.607 -1.823,5.607c-0.783,1.076 -1.834,1.732 -2.853,2.27c-1.019,0.538 -2.155,0.807 -3.409,0.807c-1.466,-0 -2.789,-0.353 -3.971,-1.06c-1.132,0.645 -2.393,0.968 -3.785,0.968c-1.226,-0 -2.353,-0.255 -3.381,-0.765c-0.302,-0.15 -0.596,-0.321 -0.881,-0.514c-0.032,-0.022 -0.045,-0.06 -0.045,-0.099l0,-1.758c0,-0.12 0.026,-0.184 0.113,-0.102c1.168,1.102 2.738,1.777 4.464,1.777c0.805,-0 1.576,-0.146 2.287,-0.414c-0.142,-0.127 -0.281,-0.259 -0.417,-0.398c-1.557,-1.576 -2.335,-3.474 -2.335,-5.692c0,-2.266 0.771,-4.189 2.313,-5.771c0.145,-0.148 0.291,-0.289 0.441,-0.422c-0.712,-0.269 -1.483,-0.416 -2.289,-0.416c-1.468,-0 -2.824,0.489 -3.915,1.313c-0.318,0.221 -0.62,0.477 -0.906,0.769c-1.172,1.197 -1.758,2.687 -1.758,4.47c0,0.083 0.001,0.165 0.003,0.247l0,9.606c0,0.093 -0.056,0.175 -0.192,0.175l-1.49,-0c-0.109,-0 -0.162,-0.082 -0.162,-0.17l0,-8.952c0,-0.135 0.002,-0.269 0.008,-0.4c0.164,-3.868 1.823,-5.607 1.823,-5.607c0.783,-1.076 1.835,-1.732 2.853,-2.27c1.019,-0.538 2.155,-0.807 3.409,-0.807c1.466,-0 2.789,0.353 3.971,1.06Zm-0.149,14.16l0.001,0l-0.002,-0.001l0.001,0.001Zm-0.02,-0.012l0.001,0l-0.003,-0.001l0.002,0.001Zm-0.02,-0.012l0.001,0l-0.003,-0.002l0.002,0.002Zm-0.02,-0.013l0.002,0.001l-0.005,-0.003l0.003,0.002Zm-0.02,-0.012l0.002,0.001l-0.006,-0.004l0.004,0.003Zm-0.02,-0.012l0.002,0.001l-0.007,-0.005l0.005,0.004Zm-0.02,-0.013l0.002,0.001l-0.008,-0.005l0.006,0.004Zm-0.019,-0.012l0.001,0.001l-0.01,-0.006l0.009,0.005Zm-0.02,-0.013l0.001,0.001l-0.011,-0.007l0.01,0.006Zm-0.02,-0.013l0.001,0.001l-0.013,-0.008l0.012,0.007Zm-0.02,-0.012l0.002,0.001l-0.018,-0.012l0.016,0.011Zm-0.18,-0.12c0.054,0.037 0.108,0.073 0.162,0.108c-0.054,-0.035 -0.108,-0.071 -0.162,-0.108Zm-0.016,-0.011l0.016,0.011l-0.02,-0.014l0.004,0.003Zm-0.02,-0.014l0.015,0.01l-0.019,-0.012l0.004,0.002Zm-0.019,-0.013l0.013,0.009l-0.018,-0.012l0.005,0.003Zm-0.019,-0.014l0.012,0.009l-0.017,-0.012l0.005,0.003Zm-0.02,-0.013l0.012,0.008l-0.017,-0.012l0.005,0.004Zm-0.019,-0.014l0.011,0.008l-0.017,-0.012l0.006,0.004Zm-0.026,-0.018l0.017,0.011l-0.017,-0.011Zm-0.013,-0.01l0.01,0.007l-0.016,-0.012l0.006,0.005Zm-0.019,-0.014l0.009,0.007l-0.016,-0.012l0.007,0.005Zm-0.019,-0.014l0.008,0.006l-0.016,-0.011l0.008,0.005Zm-0.027,-0.019l0.015,0.011l-0.015,-0.011Zm-0.012,-0.009l0.007,0.005l-0.015,-0.011l0.008,0.006Zm-0.019,-0.014l0.007,0.005l-0.015,-0.011l0.008,0.006Zm-0.019,-0.014l0.006,0.004l-0.015,-0.011l0.009,0.007Zm-0.028,-0.022l0.014,0.011l-0.014,-0.011Zm-0.01,-0.007l0.005,0.004l-0.015,-0.011l0.01,0.007Zm-0.019,-0.015l0.004,0.004l-0.014,-0.011l0.01,0.007Zm-0.02,-0.014l0.005,0.003l-0.015,-0.011l0.01,0.008Zm-0.019,-0.015l0.004,0.003l-0.014,-0.011l0.01,0.008Zm-0.019,-0.015l0.004,0.003l-0.014,-0.011l0.01,0.008Zm-0.018,-0.014l0.002,0.002l-0.014,-0.011l0.012,0.009Zm-0.019,-0.015l0.002,0.002l-0.014,-0.011l0.012,0.009Zm-0.019,-0.015l0.002,0.002l-0.014,-0.011l0.012,0.009Zm-0.019,-0.015l0.001,0.001l-0.013,-0.011l0.012,0.01Zm-0.019,-0.015l0.001,0.001l-0.014,-0.011l0.013,0.01Zm-0.019,-0.015l0.001,-0l-0.014,-0.011l0.013,0.011Zm-0.019,-0.015l0.001,-0l-0.014,-0.011l0.013,0.011Zm-0.037,-0.031l0.005,0.005l-0.005,-0.005Zm-0.019,-0.015l0.005,0.004l-0.005,-0.004Zm-0.019,-0.016l0.005,0.004l-0.005,-0.004Zm-0.018,-0.015l0.004,0.003l-0.005,-0.003l0.001,-0Zm-0.019,-0.016l0.004,0.004l-0.004,-0.004Zm-0.019,-0.016l0.004,0.004l-0.004,-0.004Zm-0.019,-0.016l0.004,0.004l-0.004,-0.004Zm-0.018,-0.015l0.003,0.003l-0.003,-0.003Zm-0.018,-0.016l0.002,0.002l-0.003,-0.002l0.001,-0Zm-0.019,-0.015l0.002,0.001l-0.002,-0.002l-0,0.001Zm-0.018,-0.016l0.002,0.001l-0.003,-0.002l0.001,0.001Zm-0.019,-0.017l0.002,0.002l-0.002,-0.002Zm-0.018,-0.016l0.001,0.001l-0.002,-0.001l0.001,-0Zm-0.018,-0.016l0,0.001l-0.001,-0.001l0.001,-0Zm-0.019,-0.016l0.001,-0l-0.001,-0Zm0.024,-12.335l0.002,-0.002l-0.002,0.002Zm0.025,-0.022l-0.005,0.005l0.005,-0.005Zm0.016,-0.014l-0.002,0.001l0.007,-0.005l-0.005,0.004Zm0.02,-0.017l-0.002,0.001l0.007,-0.006l-0.005,0.005Zm0.02,-0.018l-0.002,0.002l0.007,-0.006l-0.005,0.004Zm0.021,-0.017l-0.004,0.002l0.008,-0.006l-0.004,0.004Zm0.024,-0.021l-0.008,0.006l0.008,-0.006Zm0.016,-0.014l-0.004,0.004l0.008,-0.007l-0.004,0.003Zm0.021,-0.017l-0.005,0.004l0.007,-0.006l-0.002,0.002Zm0.022,-0.019l-0.006,0.006l0.006,-0.006Zm0.019,-0.015l-0.005,0.003l0.006,-0.005l-0.001,0.002Zm0.02,-0.017l-0.004,0.003l0.005,-0.004l-0.001,0.001Zm0.021,-0.017l-0.001,0.001l0.001,-0.001Zm0.062,-0.05l-0.001,-0l0.003,-0.002l-0.002,0.002Zm0.02,-0.017l-0.001,0.001l0.005,-0.004l-0.004,0.003Zm0.021,-0.016l-0.001,0.001l0.005,-0.004l-0.004,0.003Zm0.021,-0.017l-0.002,0.002l0.005,-0.004l-0.003,0.002Zm0.024,-0.018l-0.006,0.004l0.006,-0.004Zm0.017,-0.014l-0.002,0.002l0.005,-0.004l-0.003,0.002Zm0.023,-0.018l-0.004,0.004l0.004,-0.004Zm0.019,-0.014l-0.003,0.002l0.005,-0.004l-0.002,0.002Zm0.022,-0.017l-0.003,0.003l0.003,-0.003Zm0.02,-0.015l-0.001,0.001l0.001,-0.001Zm0.19,-0.139l0.001,-0.001l-0.001,0.001Zm0.021,-0.015l0.001,-0.001l-0.001,0.001Zm0.022,-0.015l-0.001,-0l0.001,-0Z" style="fill:#e64741;fill-rule:nonzero;"/><path d="M12.096,4.104c0.271,-0.726 1.61,-0.898 2.311,-1.237c1.373,-0.664 1.937,-2.479 1.937,-2.479c0,0 0.495,1.391 -0.628,3.121c-0.462,0.711 -1.165,1.247 -1.832,1.52c0.035,0.033 0.071,0.064 0.106,0.092c0.871,0.683 2.446,0.359 2.446,0.359c0,0 -0.972,0.885 -2.621,0.791c-0.831,-0.047 -1.546,-0.446 -1.889,-0.911c-0.891,0.531 -2.744,0.692 -3.825,-0.024c-1.719,-1.138 -1.357,-2.077 -1.357,-2.077c0,0 0.778,0.906 2.302,0.967c0.83,0.033 2.294,-0.68 3.05,-0.122Z" style="fill:#82c93b;"/><path d="M12.596,8.557l2.357,3.669l1.312,-1.312l-3.669,-2.357Z" style="fill:#e64741;"/><path d="M16.544,11.645c-0.041,0.493 -0.455,0.881 -0.959,0.881c-0.531,0 -0.962,-0.431 -0.962,-0.962c0,-0.531 0.431,-0.962 0.962,-0.962c0.085,0 0.168,0.012 0.246,0.032l5.292,-2.976l-4.579,3.987Z" style="fill:#82c93b;"/></svg>